<mxfile host="Electron" modified="2024-05-12T03:01:47.400Z" agent="Mozilla/5.0 (Windows NT 10.0; Win64; x64) AppleWebKit/537.36 (KHTML, like Gecko) draw.io/24.2.5 Chrome/120.0.6099.109 Electron/28.1.0 Safari/537.36" etag="JisSOLjlAZ2HqBDchwEq" version="24.2.5" type="device">
  <diagram name="Page-1" id="cpQfsHpUNNZVW2A89Rhb">
    <mxGraphModel dx="1290" dy="780" grid="1" gridSize="10" guides="1" tooltips="1" connect="1" arrows="1" fold="1" page="1" pageScale="1" pageWidth="850" pageHeight="1100" math="0" shadow="0">
      <root>
        <mxCell id="0" />
        <mxCell id="1" parent="0" />
        <mxCell id="jvOhJYkhe5JWHvBt0RlO-10" value="" style="edgeStyle=orthogonalEdgeStyle;rounded=0;orthogonalLoop=1;jettySize=auto;html=1;" edge="1" parent="1" source="jvOhJYkhe5JWHvBt0RlO-2" target="jvOhJYkhe5JWHvBt0RlO-6">
          <mxGeometry relative="1" as="geometry" />
        </mxCell>
        <mxCell id="jvOhJYkhe5JWHvBt0RlO-2" value="Program" style="swimlane;fontStyle=1;align=center;verticalAlign=top;childLayout=stackLayout;horizontal=1;startSize=26;horizontalStack=0;resizeParent=1;resizeParentMax=0;resizeLast=0;collapsible=1;marginBottom=0;whiteSpace=wrap;html=1;" vertex="1" parent="1">
          <mxGeometry x="100" y="211" width="160" height="88" as="geometry" />
        </mxCell>
        <mxCell id="jvOhJYkhe5JWHvBt0RlO-3" value="&lt;div&gt;+ journals: List&amp;lt;Journal&amp;gt;&lt;/div&gt;" style="text;strokeColor=none;fillColor=none;align=left;verticalAlign=top;spacingLeft=4;spacingRight=4;overflow=hidden;rotatable=0;points=[[0,0.5],[1,0.5]];portConstraint=eastwest;whiteSpace=wrap;html=1;" vertex="1" parent="jvOhJYkhe5JWHvBt0RlO-2">
          <mxGeometry y="26" width="160" height="24" as="geometry" />
        </mxCell>
        <mxCell id="jvOhJYkhe5JWHvBt0RlO-4" value="" style="line;strokeWidth=1;fillColor=none;align=left;verticalAlign=middle;spacingTop=-1;spacingLeft=3;spacingRight=3;rotatable=0;labelPosition=right;points=[];portConstraint=eastwest;strokeColor=inherit;" vertex="1" parent="jvOhJYkhe5JWHvBt0RlO-2">
          <mxGeometry y="50" width="160" height="8" as="geometry" />
        </mxCell>
        <mxCell id="jvOhJYkhe5JWHvBt0RlO-5" value="+ menu(string): void" style="text;strokeColor=none;fillColor=none;align=left;verticalAlign=top;spacingLeft=4;spacingRight=4;overflow=hidden;rotatable=0;points=[[0,0.5],[1,0.5]];portConstraint=eastwest;whiteSpace=wrap;html=1;" vertex="1" parent="jvOhJYkhe5JWHvBt0RlO-2">
          <mxGeometry y="58" width="160" height="30" as="geometry" />
        </mxCell>
        <mxCell id="jvOhJYkhe5JWHvBt0RlO-15" value="" style="edgeStyle=orthogonalEdgeStyle;rounded=0;orthogonalLoop=1;jettySize=auto;html=1;" edge="1" parent="1" source="jvOhJYkhe5JWHvBt0RlO-6" target="jvOhJYkhe5JWHvBt0RlO-11">
          <mxGeometry relative="1" as="geometry" />
        </mxCell>
        <mxCell id="jvOhJYkhe5JWHvBt0RlO-6" value="Journal" style="swimlane;fontStyle=1;align=center;verticalAlign=top;childLayout=stackLayout;horizontal=1;startSize=26;horizontalStack=0;resizeParent=1;resizeParentMax=0;resizeLast=0;collapsible=1;marginBottom=0;whiteSpace=wrap;html=1;" vertex="1" parent="1">
          <mxGeometry x="320" y="150" width="190" height="210" as="geometry" />
        </mxCell>
        <mxCell id="jvOhJYkhe5JWHvBt0RlO-7" value="- entries: List&amp;lt;string&amp;gt;&lt;div&gt;- prompts: List&amp;lt;string&amp;gt;&lt;/div&gt;" style="text;strokeColor=none;fillColor=none;align=left;verticalAlign=top;spacingLeft=4;spacingRight=4;overflow=hidden;rotatable=0;points=[[0,0.5],[1,0.5]];portConstraint=eastwest;whiteSpace=wrap;html=1;" vertex="1" parent="jvOhJYkhe5JWHvBt0RlO-6">
          <mxGeometry y="26" width="190" height="44" as="geometry" />
        </mxCell>
        <mxCell id="jvOhJYkhe5JWHvBt0RlO-8" value="" style="line;strokeWidth=1;fillColor=none;align=left;verticalAlign=middle;spacingTop=-1;spacingLeft=3;spacingRight=3;rotatable=0;labelPosition=right;points=[];portConstraint=eastwest;strokeColor=inherit;" vertex="1" parent="jvOhJYkhe5JWHvBt0RlO-6">
          <mxGeometry y="70" width="190" height="8" as="geometry" />
        </mxCell>
        <mxCell id="jvOhJYkhe5JWHvBt0RlO-9" value="+ NewEntry(): Entry&lt;div&gt;+ DisplayEntries(): void&lt;/div&gt;&lt;div&gt;+ DisplayEntry(Entry): void&lt;/div&gt;&lt;div&gt;+ Import(string): void&lt;/div&gt;&lt;div&gt;+ Export(string): void&lt;/div&gt;&lt;div&gt;+ DeleteEntry(int): void&lt;/div&gt;&lt;div&gt;+ SetPrompts(): void&lt;/div&gt;&lt;div&gt;+ GetPrompts(): List&amp;lt;string&amp;gt;&lt;/div&gt;" style="text;strokeColor=none;fillColor=none;align=left;verticalAlign=top;spacingLeft=4;spacingRight=4;overflow=hidden;rotatable=0;points=[[0,0.5],[1,0.5]];portConstraint=eastwest;whiteSpace=wrap;html=1;" vertex="1" parent="jvOhJYkhe5JWHvBt0RlO-6">
          <mxGeometry y="78" width="190" height="132" as="geometry" />
        </mxCell>
        <mxCell id="jvOhJYkhe5JWHvBt0RlO-11" value="Entry" style="swimlane;fontStyle=1;align=center;verticalAlign=top;childLayout=stackLayout;horizontal=1;startSize=26;horizontalStack=0;resizeParent=1;resizeParentMax=0;resizeLast=0;collapsible=1;marginBottom=0;whiteSpace=wrap;html=1;" vertex="1" parent="1">
          <mxGeometry x="560" y="180" width="190" height="150" as="geometry" />
        </mxCell>
        <mxCell id="jvOhJYkhe5JWHvBt0RlO-12" value="&lt;div&gt;- prompt: string&lt;/div&gt;&lt;div&gt;- content: string&lt;/div&gt;" style="text;strokeColor=none;fillColor=none;align=left;verticalAlign=top;spacingLeft=4;spacingRight=4;overflow=hidden;rotatable=0;points=[[0,0.5],[1,0.5]];portConstraint=eastwest;whiteSpace=wrap;html=1;" vertex="1" parent="jvOhJYkhe5JWHvBt0RlO-11">
          <mxGeometry y="26" width="190" height="44" as="geometry" />
        </mxCell>
        <mxCell id="jvOhJYkhe5JWHvBt0RlO-13" value="" style="line;strokeWidth=1;fillColor=none;align=left;verticalAlign=middle;spacingTop=-1;spacingLeft=3;spacingRight=3;rotatable=0;labelPosition=right;points=[];portConstraint=eastwest;strokeColor=inherit;" vertex="1" parent="jvOhJYkhe5JWHvBt0RlO-11">
          <mxGeometry y="70" width="190" height="8" as="geometry" />
        </mxCell>
        <mxCell id="jvOhJYkhe5JWHvBt0RlO-14" value="&lt;div&gt;+ Entry(string): void&lt;/div&gt;&lt;div&gt;+ GetTime(string): string&lt;/div&gt;&lt;div&gt;+ GetContent(): string&lt;/div&gt;&lt;div&gt;+ CreateContent(string): void&lt;/div&gt;" style="text;strokeColor=none;fillColor=none;align=left;verticalAlign=top;spacingLeft=4;spacingRight=4;overflow=hidden;rotatable=0;points=[[0,0.5],[1,0.5]];portConstraint=eastwest;whiteSpace=wrap;html=1;" vertex="1" parent="jvOhJYkhe5JWHvBt0RlO-11">
          <mxGeometry y="78" width="190" height="72" as="geometry" />
        </mxCell>
      </root>
    </mxGraphModel>
  </diagram>
</mxfile>
